HIERARCHY
ROOT newVegas:Hips
{
	OFFSET 0.000000 96.330055 9.825774
	CHANNELS 6 Xposition Yposition Zposition Xrotation Yrotation Zrotation
	JOINT newVegas:Pelvis
	{
		OFFSET 0.000000 0.000000 0.000000
		CHANNELS 3 Xrotation Yrotation Zrotation
		JOINT newVegas:LeftUpLeg
		{
			OFFSET 18.735231 -5.666687 -4.541196
			CHANNELS 3 Xrotation Yrotation Zrotation
			JOINT newVegas:LeftLeg
			{
				OFFSET 2.165257 -31.864662 0.493051
				CHANNELS 3 Xrotation Yrotation Zrotation
				JOINT newVegas:LeftFoot
				{
					OFFSET 2.207560 -31.861769 -4.336291
					CHANNELS 3 Xrotation Yrotation Zrotation
					JOINT newVegas:LeftToeBase
					{
						OFFSET 0.942982 -26.721954 15.023476
						CHANNELS 3 Xrotation Yrotation Zrotation
						End Site
						{
							OFFSET 0.000000 30.670130 0.000000
						}
					}
				}
				JOINT newVegas:Left_PantLeg
				{
					OFFSET 1.281483 -8.977982 -1.108870
					CHANNELS 3 Xrotation Yrotation Zrotation
					End Site
					{
						OFFSET 0.000000 20.683853 0.000000
					}
				}
			}
		}
		JOINT newVegas:RightUpLeg
		{
			OFFSET -18.735231 -5.666687 -4.541196
			CHANNELS 3 Xrotation Yrotation Zrotation
			JOINT newVegas:RightLeg
			{
				OFFSET -2.167511 -31.864510 0.493069
				CHANNELS 3 Xrotation Yrotation Zrotation
				JOINT newVegas:RightFoot
				{
					OFFSET -2.205305 -31.861921 -4.336310
					CHANNELS 3 Xrotation Yrotation Zrotation
					JOINT newVegas:RightToeBase
					{
						OFFSET -0.942982 -26.721954 15.023476
						CHANNELS 3 Xrotation Yrotation Zrotation
						End Site
						{
							OFFSET 0.000000 30.670130 0.000000
						}
					}
				}
				JOINT newVegas:Right_PantLeg
				{
					OFFSET -1.279257 -8.978161 -1.108887
					CHANNELS 3 Xrotation Yrotation Zrotation
					End Site
					{
						OFFSET 0.000000 20.683781 0.000000
					}
				}
			}
		}
	}
	JOINT newVegas:Spine
	{
		OFFSET 0.000000 10.200043 -0.299546
		CHANNELS 3 Xrotation Yrotation Zrotation
		JOINT newVegas:Spine1
		{
			OFFSET 0.000000 11.900047 -1.516603
			CHANNELS 3 Xrotation Yrotation Zrotation
			JOINT newVegas:Spine2
			{
				OFFSET 0.000000 13.600052 -2.842519
				CHANNELS 3 Xrotation Yrotation Zrotation
				JOINT newVegas:Neck
				{
					OFFSET 0.000000 9.624100 -2.890091
					CHANNELS 3 Xrotation Yrotation Zrotation
					JOINT newVegas:Head
					{
						OFFSET 0.000000 14.068771 -1.351861
						CHANNELS 3 Xrotation Yrotation Zrotation
						JOINT newVegas:Hair_Back
						{
							OFFSET 0.000000 3.231888 -17.524775
							CHANNELS 3 Xrotation Yrotation Zrotation
							End Site
							{
								OFFSET 0.000000 19.849899 0.000000
							}
						}
						JOINT newVegas:Hair_Front
						{
							OFFSET 0.000000 31.260452 4.573765
							CHANNELS 3 Xrotation Yrotation Zrotation
							JOINT newVegas:Hair_Front1
							{
								OFFSET -0.000000 2.284073 11.993284
								CHANNELS 3 Xrotation Yrotation Zrotation
								JOINT newVegas:Hair_Front2
								{
									OFFSET -0.000000 2.284073 11.993282
									CHANNELS 3 Xrotation Yrotation Zrotation
									End Site
									{
										OFFSET 0.000000 12.208847 0.000000
									}
								}
							}
						}
						JOINT newVegas:Jowel
						{
							OFFSET 0.000000 -7.458237 6.864121
							CHANNELS 3 Xrotation Yrotation Zrotation
							End Site
							{
								OFFSET 0.000000 19.849899 0.000000
							}
						}
					}
				}
				JOINT newVegas:LeftShoulder
				{
					OFFSET 15.263037 10.923431 -0.547705
					CHANNELS 3 Xrotation Yrotation Zrotation
					JOINT newVegas:LeftArm
					{
						OFFSET 25.438639 -2.830658 -13.032501
						CHANNELS 3 Xrotation Yrotation Zrotation
						JOINT newVegas:LeftForeArm
						{
							OFFSET 29.593842 0.000000 -4.673203
							CHANNELS 3 Xrotation Yrotation Zrotation
							JOINT newVegas:LeftHand
							{
								OFFSET 27.832886 0.000000 0.954267
								CHANNELS 3 Xrotation Yrotation Zrotation
								JOINT newVegas:LeftHandThumb1
								{
									OFFSET 4.767456 -2.676666 6.397403
									CHANNELS 3 Xrotation Yrotation Zrotation
									JOINT newVegas:LeftHandThumb2
									{
										OFFSET 6.625809 -0.223526 2.471421
										CHANNELS 3 Xrotation Yrotation Zrotation
										JOINT newVegas:LeftHandThumb3
										{
											OFFSET 6.481201 0.059357 1.536795
											CHANNELS 3 Xrotation Yrotation Zrotation
											End Site
											{
												OFFSET 0.000000 6.661179 0.000000
											}
										}
									}
								}
								JOINT newVegas:LeftHandIndex1
								{
									OFFSET 18.761932 0.178406 4.531118
									CHANNELS 3 Xrotation Yrotation Zrotation
									JOINT newVegas:LeftHandIndex2
									{
										OFFSET 3.171219 -0.350479 0.097670
										CHANNELS 3 Xrotation Yrotation Zrotation
										JOINT newVegas:LeftHandIndex3
										{
											OFFSET 3.807625 -0.034592 0.457391
											CHANNELS 3 Xrotation Yrotation Zrotation
											End Site
											{
												OFFSET 0.000000 3.835159 0.000000
											}
										}
									}
								}
								JOINT newVegas:LeftHandMiddle1
								{
									OFFSET 18.461426 0.243439 -0.695649
									CHANNELS 3 Xrotation Yrotation Zrotation
									JOINT newVegas:LeftHandMiddle2
									{
										OFFSET 3.308960 -0.304459 -0.112251
										CHANNELS 3 Xrotation Yrotation Zrotation
										JOINT newVegas:LeftHandMiddle3
										{
											OFFSET 4.584320 0.057678 -0.330443
											CHANNELS 3 Xrotation Yrotation Zrotation
											End Site
											{
												OFFSET 0.000000 4.596573 0.000000
											}
										}
									}
								}
								JOINT newVegas:LeftHandRing1
								{
									OFFSET 17.563904 -0.015564 -4.860666
									CHANNELS 3 Xrotation Yrotation Zrotation
									JOINT newVegas:LeftHandRing2
									{
										OFFSET 2.582436 -0.710159 -0.544994
										CHANNELS 3 Xrotation Yrotation Zrotation
										JOINT newVegas:LeftHandRing3
										{
											OFFSET 3.050346 0.119141 -0.884829
											CHANNELS 3 Xrotation Yrotation Zrotation
											End Site
											{
												OFFSET 0.000000 3.178314 0.000000
											}
										}
									}
								}
								JOINT newVegas:LeftHandPinky1
								{
									OFFSET 15.713013 -1.058273 -8.049927
									CHANNELS 3 Xrotation Yrotation Zrotation
									JOINT newVegas:LeftHandPinky2
									{
										OFFSET 2.262558 -0.308899 -1.109793
										CHANNELS 3 Xrotation Yrotation Zrotation
										JOINT newVegas:LeftHandPinky3
										{
											OFFSET 2.240669 -0.150864 -1.296448
											CHANNELS 3 Xrotation Yrotation Zrotation
											End Site
											{
												OFFSET 0.000000 2.593094 0.000000
											}
										}
									}
								}
							}
							JOINT newVegas:Left_Sleeve
							{
								OFFSET 0.247482 -0.649780 0.586459
								CHANNELS 3 Xrotation Yrotation Zrotation
								End Site
								{
									OFFSET 0.000000 15.991226 0.000000
								}
							}
							JOINT newVegas:Left_CapeC
							{
								OFFSET 15.944374 -8.608810 -6.393338
								CHANNELS 3 Xrotation Yrotation Zrotation
								JOINT newVegas:Left_CapeC1
								{
									OFFSET 0.000000 -8.688515 0.000000
									CHANNELS 3 Xrotation Yrotation Zrotation
									End Site
									{
										OFFSET 0.000000 8.688515 0.000000
									}
								}
							}
						}
						JOINT newVegas:Left_CapeB
						{
							OFFSET 24.694458 -8.608810 -11.066542
							CHANNELS 3 Xrotation Yrotation Zrotation
							JOINT newVegas:Left_CapeB1
							{
								OFFSET 0.000008 -8.688515 0.000000
								CHANNELS 3 Xrotation Yrotation Zrotation
								End Site
								{
									OFFSET 0.000000 8.688515 0.000000
								}
							}
						}
						JOINT newVegas:Left_CapeA
						{
							OFFSET 3.431450 -8.608810 -11.066542
							CHANNELS 3 Xrotation Yrotation Zrotation
							JOINT newVegas:Left_CapeA1
							{
								OFFSET 0.000000 -8.688515 0.000000
								CHANNELS 3 Xrotation Yrotation Zrotation
								End Site
								{
									OFFSET 0.000000 8.688515 0.000000
								}
							}
						}
					}
				}
				JOINT newVegas:RightShoulder
				{
					OFFSET -15.263037 10.923431 -0.547705
					CHANNELS 3 Xrotation Yrotation Zrotation
					JOINT newVegas:RightArm
					{
						OFFSET -25.438639 -2.830658 -13.032501
						CHANNELS 3 Xrotation Yrotation Zrotation
						JOINT newVegas:RightForeArm
						{
							OFFSET -29.593842 0.000000 -4.673203
							CHANNELS 3 Xrotation Yrotation Zrotation
							JOINT newVegas:RightHand
							{
								OFFSET -27.832886 0.000000 0.954267
								CHANNELS 3 Xrotation Yrotation Zrotation
								JOINT newVegas:RightHandThumb1
								{
									OFFSET -4.767456 -2.676666 6.397403
									CHANNELS 3 Xrotation Yrotation Zrotation
									JOINT newVegas:RightHandThumb2
									{
										OFFSET -6.625809 -0.223526 2.471421
										CHANNELS 3 Xrotation Yrotation Zrotation
										JOINT newVegas:RightHandThumb3
										{
											OFFSET -6.481201 0.059357 1.536795
											CHANNELS 3 Xrotation Yrotation Zrotation
											End Site
											{
												OFFSET 0.000000 6.661179 0.000000
											}
										}
									}
								}
								JOINT newVegas:RightHandIndex1
								{
									OFFSET -18.761932 0.178406 4.531118
									CHANNELS 3 Xrotation Yrotation Zrotation
									JOINT newVegas:RightHandIndex2
									{
										OFFSET -3.171219 -0.350479 0.097670
										CHANNELS 3 Xrotation Yrotation Zrotation
										JOINT newVegas:RightHandIndex3
										{
											OFFSET -3.807625 -0.034592 0.457391
											CHANNELS 3 Xrotation Yrotation Zrotation
											End Site
											{
												OFFSET 0.000000 3.835159 0.000000
											}
										}
									}
								}
								JOINT newVegas:RightHandMiddle1
								{
									OFFSET -18.461426 0.243439 -0.695648
									CHANNELS 3 Xrotation Yrotation Zrotation
									JOINT newVegas:RightHandMiddle2
									{
										OFFSET -3.308960 -0.304459 -0.112251
										CHANNELS 3 Xrotation Yrotation Zrotation
										JOINT newVegas:RightHandMiddle3
										{
											OFFSET -4.584320 0.057678 -0.330443
											CHANNELS 3 Xrotation Yrotation Zrotation
											End Site
											{
												OFFSET 0.000000 4.596573 0.000000
											}
										}
									}
								}
								JOINT newVegas:RightHandRing1
								{
									OFFSET -17.563904 -0.015564 -4.860666
									CHANNELS 3 Xrotation Yrotation Zrotation
									JOINT newVegas:RightHandRing2
									{
										OFFSET -2.582436 -0.710159 -0.544992
										CHANNELS 3 Xrotation Yrotation Zrotation
										JOINT newVegas:RightHandRing3
										{
											OFFSET -3.050346 0.119141 -0.884830
											CHANNELS 3 Xrotation Yrotation Zrotation
											End Site
											{
												OFFSET 0.000000 3.178329 0.000000
											}
										}
									}
								}
								JOINT newVegas:RightHandPinky1
								{
									OFFSET -15.713013 -1.058273 -8.049929
									CHANNELS 3 Xrotation Yrotation Zrotation
									JOINT newVegas:RightHandPinky2
									{
										OFFSET -2.262558 -0.308899 -1.109791
										CHANNELS 3 Xrotation Yrotation Zrotation
										JOINT newVegas:RightHandPinky3
										{
											OFFSET -2.240669 -0.150864 -1.296448
											CHANNELS 3 Xrotation Yrotation Zrotation
											End Site
											{
												OFFSET 0.000000 2.593094 0.000000
											}
										}
									}
								}
							}
							JOINT newVegas:Right_CapeC
							{
								OFFSET -15.944374 -8.608810 -6.393338
								CHANNELS 3 Xrotation Yrotation Zrotation
								JOINT newVegas:Right_CapeC1
								{
									OFFSET 0.000000 -8.688515 0.000000
									CHANNELS 3 Xrotation Yrotation Zrotation
									End Site
									{
										OFFSET 0.000000 8.688515 0.000000
									}
								}
							}
							JOINT newVegas:Right_Sleeve
							{
								OFFSET -0.247482 -0.649963 0.586505
								CHANNELS 3 Xrotation Yrotation Zrotation
								End Site
								{
									OFFSET 0.000000 15.991287 0.000000
								}
							}
						}
						JOINT newVegas:Right_CapeA
						{
							OFFSET -3.431450 -8.608810 -11.066542
							CHANNELS 3 Xrotation Yrotation Zrotation
							JOINT newVegas:Right_CapeA1
							{
								OFFSET 0.000000 -8.688515 0.000000
								CHANNELS 3 Xrotation Yrotation Zrotation
								End Site
								{
									OFFSET 0.000000 8.688515 0.000000
								}
							}
						}
						JOINT newVegas:Right_CapeB
						{
							OFFSET -24.694321 -8.608810 -11.066542
							CHANNELS 3 Xrotation Yrotation Zrotation
							JOINT newVegas:Right_CapeB1
							{
								OFFSET -0.000015 -8.688515 0.000002
								CHANNELS 3 Xrotation Yrotation Zrotation
								End Site
								{
									OFFSET 0.000000 8.688515 0.000000
								}
							}
						}
					}
				}
				JOINT newVegas:Left_Collar
				{
					OFFSET 18.625118 8.655487 8.828113
					CHANNELS 3 Xrotation Yrotation Zrotation
					JOINT newVegas:Left_Collar1
					{
						OFFSET 14.783401 10.540359 -1.259481
						CHANNELS 3 Xrotation Yrotation Zrotation
						End Site
						{
							OFFSET 0.000000 18.199844 0.000000
						}
					}
				}
				JOINT newVegas:Collar_Back
				{
					OFFSET 0.000000 15.630692 -20.132616
					CHANNELS 3 Xrotation Yrotation Zrotation
					End Site
					{
						OFFSET 0.000000 22.523010 0.000000
					}
				}
				JOINT newVegas:Left_Peck
				{
					OFFSET 17.239555 -5.132629 25.482586
					CHANNELS 3 Xrotation Yrotation Zrotation
					End Site
					{
						OFFSET 0.000000 22.523026 0.000000
					}
				}
				JOINT newVegas:Right_Peck
				{
					OFFSET -17.239599 -5.132195 25.482594
					CHANNELS 3 Xrotation Yrotation Zrotation
					End Site
					{
						OFFSET 0.000000 22.523018 0.000000
					}
				}
				JOINT newVegas:Right_Collar
				{
					OFFSET -18.625099 8.655807 8.828094
					CHANNELS 3 Xrotation Yrotation Zrotation
					JOINT newVegas:Right_Collar1
					{
						OFFSET -14.783405 10.539993 -1.259501
						CHANNELS 3 Xrotation Yrotation Zrotation
						End Site
						{
							OFFSET 0.000000 18.199646 0.000000
						}
					}
				}
			}
		}
		JOINT newVegas:Belly
		{
			OFFSET 0.000000 -6.540390 9.014252
			CHANNELS 3 Xrotation Yrotation Zrotation
			End Site
			{
				OFFSET 0.000000 11.566666 0.000000
			}
		}
	}
	JOINT newVegas:ElvisFacialAnim_Joint
	{
		OFFSET 1.000000 -95.330055 -8.825774
		CHANNELS 3 Xrotation Yrotation Zrotation
		End Site
		{
			OFFSET 0.000000 35.315800 0.000000
		}
	}
}
MOTION
Frames: 4
Frame Time: 0.016667
-2.656746 87.822441 2.000310 -6.078100 -42.937936 -3.789457 0.000000 -0.000003 -0.000000 -34.392622 2.848914 12.442256 39.367154 -12.268345 -0.913708 -1.868883 0.860518 -7.190667 -0.000000 -0.000001 -0.000000 0.000000 -0.000000 0.000000 1.081844 -13.663514 -14.541483 33.239399 -9.883811 0.380880 -25.914868 -4.793849 17.827598 0.000000 0.000002 0.000000 0.000001 -0.000002 0.000002 5.852328 4.522886 -1.452850 11.839514 9.031702 -3.079602 11.839511 9.031701 -3.079603 -0.860974 -0.255641 0.047114 -0.860958 -0.255637 0.047112 0.000002 -0.000001 0.000001 -0.860973 -0.255635 0.047114 -0.860891 -0.255625 0.047111 -0.000001 0.000000 0.000000 0.000002 -0.000001 0.000001 1.386274 -0.696153 -7.881041 -22.271879 -1.651116 -63.225005 8.357434 -36.706632 3.861033 21.646265 -1.330672 18.600313 13.407023 -5.941117 -26.584336 0.326402 -7.009310 -1.403143 0.000000 0.000000 0.000002 -0.704331 -3.389978 3.926665 2.630464 3.801596 -22.230854 0.000000 -0.000001 0.000002 1.406566 8.643493 -9.311929 -3.092394 -5.017049 -27.731002 0.000000 -0.000002 0.000000 -2.611224 3.599344 -15.798233 -14.764525 -2.817311 -47.963842 0.000002 -0.000001 -0.000001 -9.974537 -4.744189 -26.765727 -22.325305 -4.689689 -39.087684 -0.000001 -0.000001 -0.000003 -0.000001 0.000000 -0.000001 -0.000001 0.000000 -0.000001 -0.000001 0.000000 -0.000001 -0.000001 -0.000000 0.000001 -0.000001 -0.000000 0.000001 -0.000001 -0.000000 0.000001 -0.000001 -0.000000 0.000001 1.402689 9.461284 9.791414 -7.070585 -19.638177 57.426038 -5.636771 30.988090 6.662431 10.981810 17.340421 11.019956 -3.312955 5.009013 20.124843 1.473421 -13.920403 3.721225 0.000000 -0.000001 0.000001 -0.983853 -4.703733 -2.480502 2.779279 -4.029299 22.784271 -0.000000 -0.000001 -0.000000 -1.041586 -1.996337 6.879179 -4.272875 5.571092 36.439223 -0.000000 0.000001 -0.000000 -0.475275 3.697274 6.340427 -16.610984 2.810025 53.253353 -0.000001 -0.000000 -0.000002 -5.955984 14.295514 17.445323 -23.912072 6.276595 40.864151 0.000000 0.000001 -0.000003 0.000000 -0.000001 0.000000 0.000000 -0.000001 0.000000 0.000000 -0.000001 0.000002 0.000002 -0.000002 -0.000001 0.000002 -0.000002 -0.000001 0.000002 -0.000002 -0.000001 0.000002 -0.000002 -0.000002 0.000000 -0.000000 -0.000000 -0.000000 -0.000000 -0.000000 0.000000 -0.000000 -0.000000 0.000000 -0.000000 -0.000000 0.000000 -0.000000 -0.000000 0.000000 -0.000000 -0.000000 -0.000000 -0.000000 -0.000000 0.000000 -0.000004 -0.000000 0.000000 -0.000003 -0.000000 
-2.565012 87.829453 1.995507 -5.601344 -42.964058 -3.619400 -0.000000 0.000002 0.000000 -34.785563 2.558164 12.412107 39.373250 -12.031302 -0.863590 -1.787679 0.876259 -7.239175 0.000000 -0.000001 0.000000 0.000001 -0.000001 -0.000000 0.841699 -13.420409 -14.288091 33.001582 -10.167950 0.365825 -25.668177 -4.797336 17.843070 0.000000 -0.000000 -0.000000 0.000001 0.000000 0.000002 5.834710 4.405136 -1.459237 11.799047 8.799395 -3.072767 11.799048 8.799394 -3.072767 -0.884852 -0.216707 0.062302 -0.884840 -0.216710 0.062302 -0.000000 0.000001 0.000001 -0.884854 -0.216706 0.062301 -0.884843 -0.216721 0.062304 0.000001 -0.000001 0.000000 -0.000000 0.000001 0.000001 1.383084 -0.397809 -7.926386 -22.004436 -1.384704 -62.677716 8.370608 -37.366985 3.935091 21.497749 -1.337482 18.097792 13.111416 -6.136093 -26.493090 0.325819 -6.958049 -1.402039 0.000000 0.000002 -0.000001 -0.719013 -3.350693 3.808698 2.631684 3.788320 -22.283765 0.000003 -0.000001 0.000003 1.373327 8.509858 -9.313185 -3.075766 -5.000971 -27.618281 -0.000001 0.000000 0.000001 -2.625174 3.508943 -15.642701 -14.703630 -2.844971 -47.751594 0.000004 -0.000001 0.000000 -9.900229 -4.812066 -26.509959 -22.241357 -4.737973 -38.917916 -0.000002 -0.000001 0.000000 0.000000 0.000000 -0.000000 0.000000 0.000000 -0.000000 0.000000 0.000000 -0.000000 -0.000000 -0.000001 0.000000 -0.000000 -0.000001 0.000000 -0.000000 -0.000001 0.000000 -0.000000 -0.000001 0.000000 1.380336 9.243852 9.868290 -7.394236 -18.526804 56.671493 -5.041556 30.970076 7.144500 10.485587 17.217590 10.641588 -3.376556 5.184975 20.019520 1.453349 -13.675547 3.683933 0.000000 0.000000 0.000000 -0.998824 -4.622906 -2.404641 2.780158 -4.022765 22.812533 -0.000001 0.000000 0.000000 -1.049608 -1.962765 6.899767 -4.234106 5.544556 36.183617 0.000000 0.000000 -0.000000 -0.462128 3.680165 6.306332 -16.520564 2.852199 52.948122 0.000000 0.000002 0.000001 -5.858136 14.220954 17.310734 -23.800163 6.330179 40.649495 -0.000001 0.000000 -0.000000 -0.000000 0.000001 -0.000002 -0.000000 0.000001 -0.000002 -0.000000 0.000001 0.000000 0.000003 -0.000000 0.000003 0.000003 -0.000000 0.000003 0.000003 -0.000000 0.000003 0.000003 -0.000000 0.000002 0.000000 0.000001 -0.000000 -0.000000 0.000001 0.000000 0.000000 0.000001 -0.000000 0.000000 0.000001 -0.000000 0.000000 0.000001 -0.000000 0.000000 0.000001 -0.000000 -0.000000 0.000001 0.000000 0.000000 -0.000000 -0.000000 -0.000000 0.000002 0.000000 
-2.283614 87.674278 1.922456 -4.781765 -43.060398 -3.121002 0.000000 0.000000 -0.000000 -35.722996 2.036554 12.065843 39.752715 -11.438979 -0.696375 -1.711858 0.914045 -7.342213 0.000000 0.000003 0.000000 0.000000 0.000000 0.000000 -0.347656 -12.835739 -14.397298 33.841128 -10.467718 0.466625 -25.745447 -4.881832 17.963135 0.000000 -0.000002 -0.000000 0.000001 0.000001 0.000001 5.855811 4.196545 -1.442091 11.833216 8.390640 -3.031210 11.833218 8.390647 -3.031211 -0.984690 -0.146388 0.080571 -0.984695 -0.146397 0.080566 -0.000001 -0.000003 -0.000000 -0.984689 -0.146384 0.080563 -0.984627 -0.146398 0.080570 -0.000001 -0.000000 0.000000 -0.000001 -0.000003 -0.000000 1.353758 -0.084324 -8.114183 -21.640141 -0.754477 -61.854234 8.118838 -38.983066 4.631951 21.232533 -1.259107 17.200740 12.349435 -6.698823 -26.370887 0.323288 -6.864131 -1.395800 0.000002 0.000002 -0.000003 -0.763692 -3.279964 3.509963 2.635038 3.751077 -22.432346 0.000001 0.000000 -0.000001 1.293474 8.191080 -9.340239 -3.040371 -4.966416 -27.377172 0.000002 -0.000000 0.000001 -2.654090 3.298731 -15.302889 -14.566884 -2.906115 -47.275653 0.000000 -0.000001 -0.000001 -9.715410 -4.953655 -25.936269 -22.054192 -4.844415 -38.540165 0.000002 -0.000001 0.000000 -0.000002 -0.000001 0.000001 -0.000002 -0.000001 0.000001 -0.000002 -0.000001 0.000001 0.000000 -0.000000 -0.000003 0.000000 -0.000000 -0.000003 0.000000 -0.000000 -0.000003 0.000000 -0.000000 -0.000003 1.366459 8.740148 9.888894 -7.774137 -17.175265 55.483583 -4.128981 32.140405 7.103264 10.171056 16.548840 10.528746 -3.582468 5.653936 19.797409 1.401159 -13.072667 3.593550 0.000000 0.000000 -0.000000 -1.043203 -4.407108 -2.216140 2.782732 -4.004105 22.893971 -0.000000 -0.000001 -0.000000 -1.069283 -1.881904 6.960317 -4.140708 5.484374 35.597730 0.000001 0.000000 0.000003 -0.431454 3.628153 6.243699 -16.316673 2.944792 52.242826 -0.000002 -0.000001 0.000003 -5.619884 14.020538 17.015118 -23.543259 6.451039 40.157916 0.000003 0.000002 -0.000001 -0.000000 0.000000 -0.000002 -0.000000 0.000000 -0.000002 -0.000000 0.000000 -0.000000 0.000000 -0.000000 -0.000001 0.000000 -0.000000 -0.000001 0.000000 -0.000000 -0.000001 0.000000 -0.000000 -0.000002 0.000001 0.000000 0.000001 0.000000 0.000000 0.000001 0.000001 0.000000 0.000001 0.000001 0.000000 0.000001 0.000001 0.000000 0.000001 0.000001 0.000000 0.000001 0.000000 0.000000 0.000001 -0.000000 0.000003 -0.000000 0.000000 0.000000 -0.000000 
-1.790317 87.289833 1.770297 -3.481270 -43.294623 -2.250624 0.000000 -0.000000 0.000000 -37.511850 1.356970 11.602371 40.762016 -10.593395 -0.551949 -1.720052 0.939277 -7.393496 0.000000 0.000000 0.000000 0.000000 0.000002 -0.000000 -2.733418 -11.871490 -14.879456 35.965037 -10.685396 0.724085 -26.203614 -5.018689 18.163063 0.000000 -0.000002 -0.000000 0.000001 -0.000001 0.000002 5.911507 3.943614 -1.401674 11.935589 7.898659 -2.958464 11.935585 7.898658 -2.958464 -1.134042 -0.054141 0.096399 -1.134046 -0.054145 0.096399 0.000000 -0.000002 0.000001 -1.134042 -0.054147 0.096400 -1.134055 -0.054144 0.096399 0.000000 -0.000000 0.000000 0.000000 -0.000002 0.000001 1.309654 0.214988 -8.413615 -21.199353 0.126758 -60.940416 7.693970 -41.267067 5.671574 20.941416 -1.264224 16.326485 11.237216 -7.601491 -26.318054 0.318560 -6.766414 -1.383199 0.000000 0.000001 -0.000003 -0.837274 -3.207479 3.075561 2.640234 3.692913 -22.663918 0.000003 0.000000 0.000001 1.177995 7.749600 -9.405760 -2.996039 -4.922955 -27.074740 0.000000 0.000001 -0.000001 -2.686025 3.012504 -14.867353 -14.390024 -2.982968 -46.649010 0.000001 0.000004 0.000003 -9.445537 -5.127570 -25.183572 -21.808973 -4.981429 -38.046927 0.000000 -0.000000 -0.000002 0.000000 -0.000001 0.000001 0.000000 -0.000001 0.000001 0.000000 -0.000001 0.000001 0.000001 -0.000000 0.000000 0.000001 -0.000000 0.000000 0.000001 -0.000000 0.000000 0.000001 -0.000000 0.000000 1.342447 8.063064 9.863274 -8.131668 -15.828304 54.090870 -3.018736 34.266987 6.652987 10.128651 15.686475 10.334874 -3.925690 6.362795 19.528322 1.328957 -12.214499 3.466210 -0.000000 0.000000 -0.000001 -1.116066 -4.082095 -1.945595 2.786697 -3.974672 23.022444 -0.000000 0.000001 -0.000001 -1.103405 -1.769652 7.059467 -4.016298 5.402054 34.811596 -0.000000 0.000001 0.000001 -0.389896 3.543164 6.177863 -16.039996 3.065603 51.291521 -0.000003 -0.000001 0.000002 -5.286059 13.715351 16.634965 -23.197339 6.609461 39.498301 -0.000002 0.000002 -0.000000 0.000002 0.000000 0.000000 0.000002 0.000000 0.000000 0.000002 0.000000 0.000000 0.000000 0.000000 0.000001 0.000000 0.000000 0.000001 0.000000 0.000000 0.000001 0.000000 0.000000 0.000000 -0.000000 -0.000002 0.000000 -0.000001 -0.000002 0.000000 -0.000000 -0.000002 0.000000 -0.000000 -0.000002 0.000000 -0.000000 -0.000002 0.000000 -0.000000 -0.000002 0.000000 -0.000001 -0.000002 0.000000 0.000000 -0.000000 -0.000000 0.000000 -0.000000 -0.000000 
